<?xml version="1.0" encoding="UTF-8" standalone="no"?>
<!-- Created with Inkscape (http://www.inkscape.org/) -->

<svg xmlns:dc="http://purl.org/dc/elements/1.1/" xmlns:cc="http://creativecommons.org/ns#" xmlns:rdf="http://www.w3.org/1999/02/22-rdf-syntax-ns#" xmlns:svg="http://www.w3.org/2000/svg" xmlns="http://www.w3.org/2000/svg" xmlns:sodipodi="http://sodipodi.sourceforge.net/DTD/sodipodi-0.dtd" xmlns:inkscape="http://www.inkscape.org/namespaces/inkscape" width="300" height="300" id="svg6612" version="1.1" inkscape:version="0.48.2 r9819" sodipodi:docname="avatar2.svg" inkscape:export-filename="/home/kuba/projects/LGM/lgm_banner_v2.png" inkscape:export-xdpi="90" inkscape:export-ydpi="90">
    <defs id="defs6614">
        <clipPath clipPathUnits="userSpaceOnUse" id="clipPath6434">
            <path style="color:#000000;fill:#000000;fill-opacity:1;fill-rule:nonzero;stroke:none;stroke-width:20;marker:none;visibility:visible;display:inline;overflow:visible;enable-background:accumulate" d="m -204.64514,399.65398 0,20.70357 353.48792,0 0,-20.70357 -353.48792,0 z m 738.49557,0 0,20.70357 353.56574,0 0,-20.70357 -353.56574,0 z" id="path6436" inkscape:connector-curvature="0" />
        </clipPath>
        <clipPath clipPathUnits="userSpaceOnUse" id="clipPath6453">
            <path style="color:#000000;fill:#000000;fill-opacity:1;fill-rule:nonzero;stroke:none;stroke-width:20;marker:none;visibility:visible;display:inline;overflow:visible;enable-background:accumulate" d="m -204.67194,399.62772 0,20.74367 323.02148,0 0,-20.74367 -323.02148,0 z m 769.09476,0 0,20.74367 323.02147,0 0,-20.74367 -323.02147,0 z" id="path6455" inkscape:connector-curvature="0" />
        </clipPath>
        <clipPath id="clipPath4138" clipPathUnits="userSpaceOnUse">
            <rect clip-path="none" style="color:#000000;fill:#1a1a1a;fill-opacity:0.57009343;fill-rule:nonzero;stroke:none;stroke-width:20;marker:none;visibility:visible;display:inline;overflow:visible;enable-background:accumulate" id="rect4140" width="262.95688" height="262.95688" x="775.77789" y="379.41241" rx="0" ry="0" />
        </clipPath>
        <clipPath id="clipPath3948" clipPathUnits="userSpaceOnUse">
            <rect ry="22.976814" rx="22.976814" y="318.1409" x="130.46524" height="262.95688" width="262.95688" id="rect3950" style="color:#000000;fill:#1a1a1a;fill-opacity:0.57009343;fill-rule:nonzero;stroke:none;stroke-width:20;marker:none;visibility:visible;display:inline;overflow:visible;enable-background:accumulate" />
        </clipPath>
    </defs>
    <sodipodi:namedview id="base" pagecolor="#ffffff" bordercolor="#666666" borderopacity="1.0" inkscape:pageopacity="0.0" inkscape:pageshadow="2" inkscape:zoom="0.54870605" inkscape:cx="259.17858" inkscape:cy="125.64383" inkscape:document-units="px" inkscape:current-layer="layer1" showgrid="false" fit-margin-top="0" fit-margin-left="0" fit-margin-right="0" fit-margin-bottom="0" inkscape:window-width="874" inkscape:window-height="526" inkscape:window-x="342" inkscape:window-y="111" inkscape:window-maximized="0" />
    <metadata id="metadata6617">
        <rdf:RDF>
            <cc:Work rdf:about="">
                <dc:format>image/svg+xml</dc:format>
                <dc:type rdf:resource="http://purl.org/dc/dcmitype/StillImage" />
                <dc:title></dc:title>
            </cc:Work>
        </rdf:RDF>
    </metadata>
    <g inkscape:label="Layer 1" inkscape:groupmode="layer" id="layer1" transform="translate(-1126.1017,-825.63147)">
        <rect style="color:#000000;fill:#2b5706;fill-opacity:1;fill-rule:nonzero;stroke:none;stroke-width:20;marker:none;visibility:visible;display:inline;overflow:visible;enable-background:accumulate" id="rect4261" width="300" height="300" x="1126.1017" y="825.63147" inkscape:export-filename="/home/kuba/www/jcubic/avatar3.png" inkscape:export-xdpi="90" inkscape:export-ydpi="90" />
        <g style="font-size:24px;font-style:normal;font-variant:normal;font-weight:normal;font-stretch:normal;line-height:100%;letter-spacing:0px;word-spacing:0px;fill:#000000;fill-opacity:1;stroke:none;font-family:Acid;-inkscape-font-specification:Acid" id="text3828" transform="translate(2658.6556,65.597997)" />
        <text xml:space="preserve" style="font-size:24px;font-style:normal;font-variant:normal;font-weight:normal;font-stretch:normal;line-height:100%;letter-spacing:0px;word-spacing:0px;fill:#000000;fill-opacity:1;stroke:none;font-family:League Gothic;-inkscape-font-specification:League Gothic" x="3670.4897" y="633.07129" id="text3831" sodipodi:linespacing="100%"><tspan y="633.07129" x="3670.4897" sodipodi:role="line" id="tspan3833" /></text>
        <text xml:space="preserve" style="font-size:16px;font-style:normal;font-variant:normal;font-weight:normal;font-stretch:normal;line-height:120.00000477%;letter-spacing:0px;word-spacing:0px;fill:#ffffff;fill-opacity:1;stroke:none;font-family:Crimson;-inkscape-font-specification:Crimson" x="3633.6487" y="601.70917" id="text3379" sodipodi:linespacing="120%"><tspan sodipodi:role="line" x="3633.6487" y="601.70917" id="tspan3423" /></text>
        <text xml:space="preserve" style="font-size:16px;font-style:normal;font-variant:normal;font-weight:normal;font-stretch:normal;line-height:100%;letter-spacing:0px;word-spacing:0px;fill:#ffffff;fill-opacity:1;stroke:none;font-family:Crimson;-inkscape-font-specification:Crimson" x="4065.4111" y="722.20532" id="text3827" sodipodi:linespacing="100%"><tspan sodipodi:role="line" id="tspan3829" x="4065.4111" y="722.20532" /></text>
        <text xml:space="preserve" style="font-size:15px;font-style:normal;font-variant:normal;font-weight:normal;font-stretch:normal;text-align:justify;line-height:129.99999523%;letter-spacing:0px;word-spacing:0px;text-anchor:start;fill:#f9f9f9;fill-opacity:1;stroke:none;font-family:TeX Gyre Heros;-inkscape-font-specification:TeX Gyre Heros" x="3995.2678" y="602.3869" id="text3602" sodipodi:linespacing="130%"><tspan sodipodi:role="line" x="3995.2678" y="602.3869" id="tspan3616" /></text>
        <text sodipodi:linespacing="100%" id="text4566" y="566.85406" x="379.95865" style="font-size:57.39112854px;font-style:normal;font-variant:normal;font-weight:bold;font-stretch:normal;line-height:100%;letter-spacing:0px;word-spacing:0px;fill:#ffffff;fill-opacity:1;stroke:none;font-family:OSP-DIN;-inkscape-font-specification:OSP-DIN Bold" xml:space="preserve"><tspan y="566.85406" x="379.95865" id="tspan4568" sodipodi:role="line" /></text>
        <flowRoot xml:space="preserve" id="flowRoot4722" style="font-size:40px;font-style:normal;font-weight:normal;line-height:125%;letter-spacing:0px;word-spacing:0px;fill:#000000;fill-opacity:1;stroke:none;font-family:Sans" transform="matrix(0.05294875,0,0,0.05294875,73.056561,476.82866)"><flowRegion id="flowRegion4724"><rect id="rect4726" width="411.42856" height="228.57143" x="320" y="723.31769" /></flowRegion><flowPara id="flowPara4728" /></flowRoot>        <path style="color:#000000;fill:#ffffff;fill-opacity:1;fill-rule:nonzero;stroke:none;stroke-width:20;marker:none;visibility:visible;display:inline;overflow:visible;enable-background:accumulate" d="m 1223.4462,969.37169 -8.1471,4.88823 1.9009,15.20807 6.7893,5.15992 19.01,1.90105 14.9365,-0.27156 7.0609,-2.71574 5.9746,-14.66494 9.505,-0.81469 4.0737,12.49233 5.4313,4.88823 11.9493,1.35793 12.4923,-0.54312 8.6903,-0.81481 6.7893,-1.35781 10.5914,-9.50502 -6.5177,-13.85026 -9.1564,-2.7304 -15.1704,-0.19205 -19.3951,3.07242 -9.9855,4.80085 -9.6016,0.38398 -10.1776,-5.56881 -18.435,-2.30434 z" id="path4257" inkscape:connector-curvature="0" />
        <path style="color:#000000;fill:#000000;fill-opacity:1;fill-rule:nonzero;stroke:none;stroke-width:2;marker:none;visibility:visible;display:inline;overflow:visible;enable-background:accumulate" d="m 167.90625,36.90625 c -2.6338,10e-4 -5.2774,0.1062 -8.0625,0.125 -4.9012,0.0319 -9.112,0.47422 -12.625,1.21875 C 115.82305,38.94077 90.3803,48.21999 76.5,80.15625 72.2447,89.94703 75.16475,133.75008 75.40625,141.5 c 0.2846,9.135 0.20925,15.85818 0.34375,19.1875 2.5761,0.0978 6.2228,0.39711 9.5,0.46875 0.8326,0.0179 2.42795,-0.0512 3.96875,2.03125 1.5409,2.08226 3.4065,4.20572 6.375,5.71875 2.9686,1.5129 10.67865,2.57601 13.09375,2.625 2.4153,0.0489 18.29315,1.42078 23.65625,-0.0937 5.3624,-1.51505 8.01125,-3.76416 9.40625,-6.8125 1.3948,-3.04822 1.9908,-7.40229 3.6875,-8.90625 1.1154,-0.98849 2.0057,-1.74364 4,-1.65625 1.994,0.087 2.90915,0.80772 3.96875,1.6875 1.777,1.47523 2.4075,5.74601 3.875,8.75 1.4676,3.00411 4.17745,5.25735 9.78125,6.71875 5.6032,1.46141 20.94825,0.47098 23.46875,0.40625 2.5207,-0.0644 11.6574,-1.51537 14.75,-3.03125 3.0929,-1.51588 4.582,-3.16351 6.3125,-5.125 2.0839,-2.36216 6.579,-2.44164 8.625,-3.03125 1.9337,-0.55719 2.7211,-0.73899 4.125,-2 0.8239,-0.76355 1.05415,-2.01595 1.09375,-2.40625 1.1631,-11.49096 -0.9748,-26.31635 -1.1875,-39.09375 -0.2277,-22.75442 4.7602,-32.2138 -11.6875,-52.09375 -4.1349,-4.99795 -9.00565,-9.46083 -14.40625,-13.1875 2.8437,0.74214 5.83645,1.89269 9.03125,3.46875 -7.0252,-5.67617 -13.0423,-9.56578 -18.3125,-12.28125 2.5367,0.39144 5.0457,0.79928 7.6875,1.21875 -12.775,-6.31486 -20.75385,-7.16042 -28.65625,-7.15625 z m 28.90625,49.875 c 0.86839,-3.694074 0.68745,-5.883198 -0.24298,-8.974861 1.34301,0.91842 1.92991,1.00791 2.86798,2.256111 8.5438,11.2569 10.93865,19.4963 11.96875,29.03125 1.0302,9.53479 0.8156,16.53504 4.125,21.8125 2.3482,3.74468 3.2919,13.22472 4.625,19.21875 -2.1133,-0.78572 -4.3731,-1.76192 -7.75,-3.09375 -2.9723,-0.59951 -3.29325,-2.51591 -7.15625,-3.9375 -3.8628,-1.42159 -5.6767,-1.3846 -15.6875,-1.71875 -1.2516,-0.0417 -2.409,-0.0155 -3.625,0 -8.5101,0.10968 -15.50755,1.64422 -19.59375,2.5625 -4.6703,1.04941 -7.13245,1.60579 -10.21875,3.375 -1.9166,1.09865 -4.0021,1.38021 -6.75,1.3125 -2.748,-0.0679 -4.75375,-0.33898 -6.59375,-1.4375 -2.9635,-1.76933 -5.30325,-2.34419 -9.78125,-3.375 -3.9183,-0.90195 -11.0965,-2.25707 -19.25,-2.3125 -1.1647,-0.0119 -2.33245,0.0426 -3.53125,0.0937 -9.5893,0.40401 -11.08565,0.53656 -14.78125,2 -3.6954,1.46331 -3.7798,3.40527 -6.625,4.03125 -2.8453,0.62609 -2.3534,0.56201 -3.875,0.53125 -0.498,-0.0119 -2.3157,-0.18095 -3.5,-0.0937 -0.1097,-1.09984 -0.14465,-2.07889 -0.03125,-2.84375 0.6359,-4.3264 3.6091,-4.37061 4,-10.625 0.3906,-6.25449 -1.12605,-29.22813 0.78125,-35.65625 1.908,-6.42815 10.38765,-19.49844 17.90625,-21.78125 12.41392,-3.769173 22.64441,2.982129 40.0625,2.9375 12.08741,0.739964 17.98499,9.301962 23.0625,4.5 -5.8744,1.812222 -6.95379,-2.689767 -10.75,-4.375 3.26586,0.421997 8.88216,0.596838 15.78125,4.125 -3.21778,-3.890211 -6.95525,-4.72848 -9.59375,-5.40625 2.2148,-0.14616 3.35035,-0.24536 5.46875,-0.21875 3.7324,0.0468 7.6265,0.80821 12.0625,4.46875 -0.3616,-1.84156 -2.8963,-4.84948 -7,-5.375 3.8141,-0.16543 8.0246,0.90292 11.625,5.25 -0.2387,-3.17833 -1.68915,-4.17312 -3.59375,-5.84375 4.8895,0.68363 6.8987,3.32614 9.5625,6.1875 -0.5388,-3.74897 -2.6049,-6.54903 -5.125,-8.5 8.43179,-2.070388 11.13066,6.818812 11.15625,11.875 z m -9.875,56 c 1.0214,-0.0262 2.054,-0.0226 3.125,0 8.5683,0.1843 11.0944,0.78896 12.875,1.375 3.3329,1.09733 4.1741,2.42715 4.8125,3.59375 0.6383,1.16647 1.0614,5.64556 1.1875,7.5 0.1097,1.61113 -0.4509,7.42758 -1.375,8.71875 -0.9242,1.29118 -3.9872,3.78264 -6.375,4.375 -2.5687,0.63718 -9.89955,1.43117 -14.15625,1.625 -4.2571,0.1936 -14.06825,0.13837 -18.78125,-0.5 -4.7131,-0.63933 -7.09235,-2.35005 -8.46875,-5.1875 -1.3765,-2.83733 -2.05995,-4.558 -2.65625,-7.5 -0.5962,-2.94188 -0.62885,-5.32602 1.40625,-7.40625 2.0347,-2.0801 6.32435,-3.63062 11.78125,-4.53125 3.5808,-0.59117 9.4761,-1.87653 16.625,-2.0625 z m -77.3125,0.625 c 0.7575,-0.0119 1.5984,0.009 2.5,0.0312 5.4102,0.13364 12.889,0.78113 16.8125,1.4375 5.2309,0.87513 9.57405,2.28429 11.53125,4.375 1.9574,2.09072 2.15405,4.17646 1.59375,7.15625 -0.5603,2.97979 -1.41095,5.05832 -2.71875,7.9375 -1.3081,2.87918 -3.58095,4.66603 -8.09375,5.34375 -4.5124,0.67771 -14.32755,0.29309 -18.40625,0.125 -4.0793,-0.16821 -11.64375,-1.29864 -13.96875,-1.6875 -2.3247,-0.38899 -4.9222,-3.13763 -5.8125,-4.4375 -0.8899,-1.29999 -1.0743,-7.19279 -0.875,-8.8125 0.1997,-1.61972 -0.1074,-5.72201 0.5,-6.90625 0.607,-1.18412 1.78005,-2.14934 4.96875,-3.28125 1.7037,-0.60463 5.37955,-0.85324 9.96875,-1.1875 0.5734,-0.0417 1.2428,-0.0842 2,-0.0937 z" transform="translate(1126.1017,825.63147)" id="path4252" inkscape:connector-curvature="0" sodipodi:nodetypes="cccssccccccccccsccccccccccccccccccscccccccccscccccccccscccccccccccccccccccccccccccccscsccccccccccc" />
        <path style="fill:#000000;stroke:none" id="path4267" d="m 1266.9695,1042.4965 c 2.4643,0.1229 5.3402,1.7734 8.0683,1.6886 2.7283,-0.085 8.3959,-3.6681 11.2595,-3.0117 2.8411,0.6514 10.8739,5.7597 17.8091,2.0326 2.5412,-1.3657 1.7755,2.8582 0.8974,3.3537 -3.4353,1.9383 -14.1783,-0.6765 -18.303,-1.192 -4.1099,-0.5138 -7.2396,1.6998 -11.6413,2.1091 -4.3697,0.4063 -3.8548,-1.5331 -8.6829,-1.5806 -5.0779,-0.049 -17.5414,4.2851 -19.6313,2.8964 -2.0898,-1.3888 -1.4254,-4.4619 1.6857,-3.0324 3.8055,1.7487 12.4809,-3.5668 18.5385,-3.2637 z" inkscape:connector-curvature="0" sodipodi:nodetypes="cccsccscccc" />
        <path style="fill:#000000;stroke:none" id="path4269" d="m 1269.3639,1070.3113 c -0.2735,3.0859 -3.2493,8.4808 -10.555,9.145 -2.7373,0.2493 -9.013,-1.1979 -14.7665,-4.5015 -2.7589,-1.5842 -3.1371,0.024 -1.0712,1.7399 12.8125,10.6603 25.2748,12.029 33.7128,12.029 8.554,0 26.1649,-2.644 35.7034,-13.5605 2.9192,-3.3411 2.2361,-4.9505 -1.6633,-1.7096 -3.9966,3.3217 -9.294,3.6072 -13.0421,4.0541 -5.2415,0.6248 -13.0446,-3.0669 -13.3633,-9.4231 -0.1278,-2.5613 -1.3748,-5.343 -2.4159,-6.2242 -3.1594,1.2587 -7.3583,1.7962 -9.9794,0.3317 -1.6829,2.6104 -2.2544,4.6815 -2.5595,8.1196 z" inkscape:connector-curvature="0" />
        <path style="fill:#000000;stroke:none" id="path4271" d="m 1276.2109,1055.2198 c -3.3908,0.3561 -6.4412,-0.3681 -8.646,-1.0584 -1.1024,-0.345 -1.9945,-0.6794 -2.6216,-0.8836 -0.6268,-0.2044 -0.99,-0.2761 -1.0266,-0.1488 -0.034,0.1221 0.8969,1.1558 1.4811,1.4836 0.5843,0.3268 1.4494,0.7411 2.5323,1.1321 1.0829,0.3916 2.3845,0.7565 3.8108,0.9904 1.4264,0.2339 2.9765,0.3334 4.5263,0.242 0,0 0.064,0 0.1942,-0.017 0.4071,-0.032 1.4173,-0.1327 2.6649,-0.399 1.2474,-0.2677 2.7262,-0.7178 4.0819,-1.2903 1.3557,-0.573 2.5853,-1.2592 3.4259,-1.8092 0.8406,-0.5494 1.5096,-1.5166 1.7929,-2.7692 -0.1783,4e-4 -0.6286,0.2193 -1.2986,0.5806 -0.6702,0.3614 -1.5615,0.861 -2.6297,1.3887 -2.1362,1.0555 -4.9758,2.2033 -8.1531,2.543 -0.043,0 -0.091,0 -0.1348,0.02 l 0,0 z" inkscape:connector-curvature="0" sodipodi:nodetypes="ccccccccccccccccccc" />
        <path inkscape:connector-curvature="0" d="m 1276.212,1025.6611 c -3.4849,0.3015 -6.6199,-0.3116 -8.8859,-0.896 -1.133,-0.2923 -2.0499,-0.5753 -2.6943,-0.7482 -0.6443,-0.1731 -1.0175,-0.2338 -1.0551,-0.1261 -0.035,0.1034 1.2369,1.479 1.8211,1.8067 0.5843,0.3269 1.4494,0.7411 2.5323,1.1321 1.0829,0.3916 2.3845,0.7565 3.8108,0.9904 1.4264,0.2339 2.9765,0.3335 4.5263,0.242 0,0 0.064,0 0.1942,-0.017 0.4071,-0.032 1.4173,-0.1326 2.6649,-0.399 1.2474,-0.2677 2.7262,-0.7177 4.0819,-1.2903 1.3557,-0.5729 2.5853,-1.2592 3.4259,-1.8091 0.8406,-0.5495 1.5962,-1.5775 2.1329,-2.7187 -0.1833,2e-4 -0.646,0.1856 -1.3346,0.4915 -0.6888,0.3061 -1.6049,0.729 -2.7027,1.1758 -2.1955,0.8937 -5.1138,1.8655 -8.3793,2.1533 -0.044,0 -0.093,0 -0.1385,0.017 l 0,0 z" id="path4281" style="fill:#000000;stroke:none" sodipodi:nodetypes="ccccccccccccccccccc" />
    </g>
</svg>
